<mxfile host="app.diagrams.net" modified="2021-12-22T05:37:58.110Z" agent="5.0 (Windows NT 10.0; Win64; x64) AppleWebKit/537.36 (KHTML, like Gecko) Chrome/96.0.4664.110 Safari/537.36 Edg/96.0.1054.62" etag="ajdiQa4zm2e4ppa1Bf4i" version="16.0.0" type="github">
  <diagram id="prtHgNgQTEPvFCAcTncT" name="Page-1">
    <mxGraphModel dx="916" dy="595" grid="1" gridSize="10" guides="1" tooltips="1" connect="1" arrows="1" fold="1" page="1" pageScale="1" pageWidth="827" pageHeight="1169" math="0" shadow="0">
      <root>
        <mxCell id="0" />
        <mxCell id="1" parent="0" />
        <mxCell id="t1jZ-Oc3Oe0Yy_XyvYZ5-1" value="" style="rounded=1;whiteSpace=wrap;html=1;fillColor=#dae8fc;strokeColor=#6c8ebf;" vertex="1" parent="1">
          <mxGeometry x="80" y="80" width="330" height="310" as="geometry" />
        </mxCell>
        <mxCell id="t1jZ-Oc3Oe0Yy_XyvYZ5-2" value="工厂数据模块" style="rounded=0;whiteSpace=wrap;html=1;fontSize=13;strokeColor=none;fillColor=#dae8fc;" vertex="1" parent="1">
          <mxGeometry x="93" y="100" width="90" height="30" as="geometry" />
        </mxCell>
        <mxCell id="t1jZ-Oc3Oe0Yy_XyvYZ5-3" value="" style="rounded=1;whiteSpace=wrap;html=1;fillColor=#dae8fc;strokeColor=#6c8ebf;" vertex="1" parent="1">
          <mxGeometry x="536" y="81" width="120" height="309" as="geometry" />
        </mxCell>
        <mxCell id="t1jZ-Oc3Oe0Yy_XyvYZ5-4" value="工厂结构模块" style="rounded=0;whiteSpace=wrap;html=1;fontSize=13;strokeColor=none;fillColor=#dae8fc;" vertex="1" parent="1">
          <mxGeometry x="549" y="101" width="90" height="30" as="geometry" />
        </mxCell>
        <mxCell id="t1jZ-Oc3Oe0Yy_XyvYZ5-5" value="" style="rounded=0;whiteSpace=wrap;html=1;fontSize=13;fillColor=#d5e8d4;strokeColor=#82b366;" vertex="1" parent="1">
          <mxGeometry x="93" y="150" width="287" height="90" as="geometry" />
        </mxCell>
        <mxCell id="t1jZ-Oc3Oe0Yy_XyvYZ5-6" value="结构视图" style="rounded=0;whiteSpace=wrap;html=1;fontSize=13;" vertex="1" parent="1">
          <mxGeometry x="552" y="168.5" width="90" height="35" as="geometry" />
        </mxCell>
        <mxCell id="t1jZ-Oc3Oe0Yy_XyvYZ5-7" value="bomLine" style="rounded=0;whiteSpace=wrap;html=1;fontSize=13;" vertex="1" parent="1">
          <mxGeometry x="550" y="228.5" width="90" height="35" as="geometry" />
        </mxCell>
        <mxCell id="t1jZ-Oc3Oe0Yy_XyvYZ5-15" value="对象数据" style="rounded=0;whiteSpace=wrap;html=1;fontSize=13;strokeColor=none;fillColor=#d5e8d4;" vertex="1" parent="1">
          <mxGeometry x="100" y="154" width="90" height="30" as="geometry" />
        </mxCell>
        <mxCell id="t1jZ-Oc3Oe0Yy_XyvYZ5-16" value="添加数据" style="rounded=0;whiteSpace=wrap;html=1;fontSize=13;fillColor=#fff2cc;strokeColor=#d6b656;" vertex="1" parent="1">
          <mxGeometry x="100" y="197.5" width="60" height="22.5" as="geometry" />
        </mxCell>
        <mxCell id="t1jZ-Oc3Oe0Yy_XyvYZ5-17" value="搜索数据" style="rounded=0;whiteSpace=wrap;html=1;fontSize=13;fillColor=#fff2cc;strokeColor=#d6b656;" vertex="1" parent="1">
          <mxGeometry x="240" y="197.5" width="60" height="22.5" as="geometry" />
        </mxCell>
        <mxCell id="t1jZ-Oc3Oe0Yy_XyvYZ5-18" value="修改数据" style="rounded=0;whiteSpace=wrap;html=1;fontSize=13;fillColor=#fff2cc;strokeColor=#d6b656;" vertex="1" parent="1">
          <mxGeometry x="170" y="197.5" width="60" height="22.5" as="geometry" />
        </mxCell>
        <mxCell id="t1jZ-Oc3Oe0Yy_XyvYZ5-19" value="发布数据" style="rounded=0;whiteSpace=wrap;html=1;fontSize=13;fillColor=#fff2cc;strokeColor=#d6b656;" vertex="1" parent="1">
          <mxGeometry x="310" y="197.5" width="60" height="22.5" as="geometry" />
        </mxCell>
        <mxCell id="t1jZ-Oc3Oe0Yy_XyvYZ5-24" style="edgeStyle=orthogonalEdgeStyle;rounded=0;orthogonalLoop=1;jettySize=auto;html=1;exitX=0.5;exitY=1;exitDx=0;exitDy=0;fontSize=13;" edge="1" parent="1" source="t1jZ-Oc3Oe0Yy_XyvYZ5-19" target="t1jZ-Oc3Oe0Yy_XyvYZ5-19">
          <mxGeometry relative="1" as="geometry" />
        </mxCell>
        <mxCell id="t1jZ-Oc3Oe0Yy_XyvYZ5-27" value="" style="rounded=0;whiteSpace=wrap;html=1;fontSize=13;fillColor=#d5e8d4;strokeColor=#82b366;" vertex="1" parent="1">
          <mxGeometry x="93" y="270" width="287" height="90" as="geometry" />
        </mxCell>
        <mxCell id="t1jZ-Oc3Oe0Yy_XyvYZ5-28" value="对象权限" style="rounded=0;whiteSpace=wrap;html=1;fontSize=13;strokeColor=none;fillColor=#d5e8d4;" vertex="1" parent="1">
          <mxGeometry x="100" y="274" width="90" height="30" as="geometry" />
        </mxCell>
        <mxCell id="t1jZ-Oc3Oe0Yy_XyvYZ5-29" value="编辑权限" style="rounded=0;whiteSpace=wrap;html=1;fontSize=13;fillColor=#fff2cc;strokeColor=#d6b656;" vertex="1" parent="1">
          <mxGeometry x="100" y="317.5" width="60" height="22.5" as="geometry" />
        </mxCell>
        <mxCell id="t1jZ-Oc3Oe0Yy_XyvYZ5-30" value="存储权限" style="rounded=0;whiteSpace=wrap;html=1;fontSize=13;fillColor=#fff2cc;strokeColor=#d6b656;" vertex="1" parent="1">
          <mxGeometry x="240" y="317.5" width="60" height="22.5" as="geometry" />
        </mxCell>
        <mxCell id="t1jZ-Oc3Oe0Yy_XyvYZ5-31" value="判定权限" style="rounded=0;whiteSpace=wrap;html=1;fontSize=13;fillColor=#fff2cc;strokeColor=#d6b656;" vertex="1" parent="1">
          <mxGeometry x="170" y="317.5" width="60" height="22.5" as="geometry" />
        </mxCell>
        <mxCell id="t1jZ-Oc3Oe0Yy_XyvYZ5-33" style="edgeStyle=orthogonalEdgeStyle;rounded=0;orthogonalLoop=1;jettySize=auto;html=1;exitX=0.5;exitY=1;exitDx=0;exitDy=0;fontSize=13;" edge="1" parent="1">
          <mxGeometry relative="1" as="geometry">
            <mxPoint x="340" y="340" as="sourcePoint" />
            <mxPoint x="340" y="340" as="targetPoint" />
          </mxGeometry>
        </mxCell>
        <mxCell id="t1jZ-Oc3Oe0Yy_XyvYZ5-34" value="数据组装" style="rounded=0;whiteSpace=wrap;html=1;fontSize=13;" vertex="1" parent="1">
          <mxGeometry x="551" y="290" width="90" height="35" as="geometry" />
        </mxCell>
        <mxCell id="t1jZ-Oc3Oe0Yy_XyvYZ5-35" value="" style="endArrow=classic;html=1;rounded=0;fontSize=13;entryX=0.033;entryY=0.32;entryDx=0;entryDy=0;entryPerimeter=0;" edge="1" parent="1" target="t1jZ-Oc3Oe0Yy_XyvYZ5-3">
          <mxGeometry width="50" height="50" relative="1" as="geometry">
            <mxPoint x="410" y="180" as="sourcePoint" />
            <mxPoint x="530" y="180" as="targetPoint" />
          </mxGeometry>
        </mxCell>
        <mxCell id="t1jZ-Oc3Oe0Yy_XyvYZ5-36" value="添加结构" style="edgeLabel;html=1;align=center;verticalAlign=middle;resizable=0;points=[];fontSize=13;" vertex="1" connectable="0" parent="t1jZ-Oc3Oe0Yy_XyvYZ5-35">
          <mxGeometry x="-0.1301" y="2" relative="1" as="geometry">
            <mxPoint as="offset" />
          </mxGeometry>
        </mxCell>
        <mxCell id="t1jZ-Oc3Oe0Yy_XyvYZ5-37" value="" style="endArrow=classic;html=1;rounded=0;fontSize=13;exitX=0;exitY=0.5;exitDx=0;exitDy=0;entryX=1;entryY=0.5;entryDx=0;entryDy=0;" edge="1" parent="1" source="t1jZ-Oc3Oe0Yy_XyvYZ5-3" target="t1jZ-Oc3Oe0Yy_XyvYZ5-1">
          <mxGeometry width="50" height="50" relative="1" as="geometry">
            <mxPoint x="450" y="280" as="sourcePoint" />
            <mxPoint x="500" y="230" as="targetPoint" />
          </mxGeometry>
        </mxCell>
        <mxCell id="t1jZ-Oc3Oe0Yy_XyvYZ5-38" value="对象数据查询" style="edgeLabel;html=1;align=center;verticalAlign=middle;resizable=0;points=[];fontSize=13;" vertex="1" connectable="0" parent="t1jZ-Oc3Oe0Yy_XyvYZ5-37">
          <mxGeometry x="-0.0833" relative="1" as="geometry">
            <mxPoint as="offset" />
          </mxGeometry>
        </mxCell>
        <mxCell id="t1jZ-Oc3Oe0Yy_XyvYZ5-39" value="" style="endArrow=classic;html=1;rounded=0;fontSize=13;entryX=-0.002;entryY=0.735;entryDx=0;entryDy=0;entryPerimeter=0;exitX=1.002;exitY=0.732;exitDx=0;exitDy=0;exitPerimeter=0;" edge="1" parent="1" source="t1jZ-Oc3Oe0Yy_XyvYZ5-1" target="t1jZ-Oc3Oe0Yy_XyvYZ5-3">
          <mxGeometry width="50" height="50" relative="1" as="geometry">
            <mxPoint x="410" y="350" as="sourcePoint" />
            <mxPoint x="460" y="300" as="targetPoint" />
          </mxGeometry>
        </mxCell>
        <mxCell id="t1jZ-Oc3Oe0Yy_XyvYZ5-40" value="视图查询" style="edgeLabel;html=1;align=center;verticalAlign=middle;resizable=0;points=[];fontSize=13;" vertex="1" connectable="0" parent="t1jZ-Oc3Oe0Yy_XyvYZ5-39">
          <mxGeometry x="0.1245" y="1" relative="1" as="geometry">
            <mxPoint as="offset" />
          </mxGeometry>
        </mxCell>
      </root>
    </mxGraphModel>
  </diagram>
</mxfile>
